<?xml version="1.0" encoding="UTF-8"?>
<svg xmlns="http://www.w3.org/2000/svg" viewBox="0 0 1900 1900.436">
  <defs>
    <style>
      .cls-1 {
        fill: #393738;
      }

      .cls-1, .cls-2, .cls-3, .cls-4, .cls-5, .cls-6, .cls-7 {
        stroke-width: 0px;
      }

      .cls-2 {
        fill: #009c3b;
      }

      .cls-4 {
        fill: #f1ca3f;
      }

      .cls-5 {
        fill: #b3b3b3;
      }

      .cls-8 {
        font-size: 108px;
      }

      .cls-8, .cls-9 {
        font-family: Arial-BoldMT, Arial;
        font-weight: 700;
      }

      .cls-6 {
        fill: #f9db06;
      }

      .cls-7, .cls-10 {
        fill: #fff;
      }

      .cls-10 {
        stroke-width: 2px;
      }

      .cls-10, .cls-11, .cls-12 {
        stroke: #000;
        stroke-miterlimit: 10;
      }

      .cls-11 {
        fill: none;
      }

      .cls-11, .cls-12 {
        stroke-width: 15px;
      }

      .cls-9 {
        font-size: 125px;
      }
    </style>
  </defs>
  <g id="Camada_4" data-name="Camada 4">
    <circle class="cls-10" cx="950.149" cy="950.915" r="948.521"/>
    <path class="cls-2" d="m654.49,1762.62l-29,79.8C261.53,1709.85,1.63,1360.73,1.63,950.91c0-.7,0-1.41.01-2.11h84.51v1.2c0,373.47,236.74,691.64,568.34,812.62Z"/>
    <path class="cls-2" d="m1898.67,950.91c0,410.06-260.21,759.34-624.5,891.74l-28.82-79.3c332.64-120.44,570.33-439.14,570.33-813.35v-1.2h82.98c.01.7.01,1.41.01,2.11Z"/>
    <path class="cls-6" d="m1815.68,948.8v1.2c0,374.21-237.69,692.91-570.33,813.35l-295.69-813.5-.13,1.06-295.04,811.71c-331.6-120.98-568.34-439.15-568.34-812.62v-1.2h1729.53Z"/>
    <circle class="cls-1" cx="949.534" cy="950.915" r="790"/>
  </g>
  <g id="Camada_3" data-name="Camada 3">
    <path class="cls-3" d="m950,175c104.631,0,206.124,20.489,301.66,60.897,45.919,19.422,90.208,43.462,131.639,71.452,41.041,27.727,79.634,59.569,114.708,94.643,35.074,35.074,66.917,73.667,94.643,114.708,27.99,41.43,52.03,85.72,71.452,131.639,40.408,95.536,60.897,197.03,60.897,301.66s-20.489,206.124-60.897,301.66c-19.422,45.919-43.462,90.208-71.452,131.639-27.727,41.041-59.569,79.634-94.643,114.708-35.074,35.074-73.667,66.917-114.708,94.643-41.43,27.99-85.72,52.03-131.639,71.452-95.536,40.408-197.03,60.897-301.66,60.897s-206.124-20.489-301.66-60.897c-45.919-19.422-90.208-43.462-131.639-71.452-41.041-27.727-79.634-59.569-114.708-94.643-35.074-35.074-66.917-73.667-94.643-114.708-27.99-41.43-52.03-85.72-71.452-131.639-40.408-95.536-60.897-197.03-60.897-301.66s20.489-206.124,60.897-301.66c19.422-45.919,43.462-90.208,71.452-131.639,27.727-41.041,59.569-79.634,94.643-114.708s73.667-66.917,114.708-94.643c41.43-27.99,85.72-52.03,131.639-71.452,95.536-40.408,197.03-60.897,301.66-60.897m0-15c-436.305,0-790,353.695-790,790s353.695,790,790,790,790-353.695,790-790S1386.305,160,950,160h0Z"/>
    <path class="cls-3" d="m950,15c63.448,0,126.853,6.391,188.451,18.996,60.025,12.283,119.068,30.611,175.489,54.475,55.399,23.432,108.833,52.435,158.817,86.204,49.513,33.45,96.074,71.866,138.388,114.181,42.314,42.314,80.73,88.875,114.181,138.388,33.769,49.984,62.772,103.418,86.204,158.817,23.864,56.42,42.192,115.463,54.475,175.489,12.605,61.599,18.996,125.003,18.996,188.451s-6.391,126.853-18.996,188.451c-12.283,60.025-30.611,119.068-54.475,175.489-23.432,55.399-52.435,108.833-86.204,158.817-33.45,49.513-71.866,96.074-114.181,138.388-42.314,42.314-88.875,80.73-138.388,114.181-49.984,33.769-103.418,62.772-158.817,86.204-56.42,23.864-115.463,42.192-175.489,54.475-61.599,12.605-125.003,18.996-188.451,18.996s-126.852-6.391-188.451-18.996c-60.025-12.283-119.068-30.611-175.489-54.475-55.399-23.432-108.833-52.435-158.817-86.204-49.513-33.45-96.074-71.866-138.388-114.181-42.314-42.314-80.731-88.875-114.181-138.388-33.769-49.984-62.772-103.418-86.204-158.817-23.864-56.42-42.192-115.463-54.475-175.489-12.605-61.599-18.996-125.003-18.996-188.451s6.391-126.852,18.996-188.451c12.283-60.025,30.611-119.068,54.475-175.489,23.432-55.399,52.435-108.833,86.204-158.817,33.45-49.513,71.866-96.074,114.181-138.388,42.314-42.314,88.875-80.731,138.388-114.181,49.984-33.769,103.418-62.772,158.817-86.204,56.42-23.864,115.463-42.192,175.489-54.475,61.599-12.605,125.003-18.996,188.451-18.996m0-15C425.329,0,0,425.329,0,950s425.329,950,950,950,950-425.329,950-950S1474.671,0,950,0h0Z"/>
    <path class="cls-3" d="m86.149,950c0,373.857,237.245,692.294,569.391,812.996,1.128-2.429,1.766-5.076,2.104-7.75-13.547-4.932-26.963-10.2-40.219-15.807-50.765-21.472-99.729-48.048-145.531-78.992-45.369-30.651-88.032-65.851-126.805-104.624-38.772-38.772-73.973-81.435-104.624-126.804-30.943-45.802-57.52-94.766-78.992-145.531-21.868-51.702-38.663-105.807-49.919-160.813-11.505-56.222-17.356-114.084-17.402-171.991-2.661-.419-5.345-.82-8.002-1.132,0,.149-.003.297-.003.446Z"/>
    <path class="cls-3" d="m1807.678,949.622c0,.126.002.252.002.378,0,58.136-5.856,116.233-17.407,172.677-11.256,55.006-28.051,109.111-49.919,160.813-21.472,50.765-48.048,99.729-78.992,145.531-30.651,45.369-65.851,88.032-104.624,126.804-38.772,38.772-81.435,73.973-126.804,104.624-45.802,30.943-94.766,57.52-145.531,78.992-13.822,5.846-27.819,11.317-41.956,16.429,1.302,2.384,2.654,4.732,3.956,7.086,331.801-120.63,568.864-438.594,569.272-811.992-2.665-.449-5.312-.954-7.998-1.342Z"/>
    <line class="cls-11" x1="683.323" y1="1683.316" x2="625.492" y2="1842.421"/>
    <line class="cls-11" x1="1271.914" y1="1836.438" x2="1216.258" y2="1683.316"/>
    <line class="cls-12" x1="1892.277" y1="949.323" x2="1733.78" y2="949.323"/>
    <line class="cls-12" x1="167.34" y1="950" x2="7.255" y2="950"/>
  </g>
  <g id="Camada_2" data-name="Camada 2">
    <circle class="cls-1" cx="949.242" cy="944.966" r="734"/>
    <g>
      <path class="cls-4" d="m1636.43,906.829c-.91-12.958-1.941-25.891-3.349-38.805-1.525-13.989-3.485-27.915-5.94-41.759-5.641-31.812-13.312-63.133-23.239-93.895-13.891-43.048-31.763-84.364-53.638-123.955-30.026-54.343-66.723-103.752-109.843-148.395-18.829-19.494-38.812-37.748-59.811-54.891-36.614-29.891-75.868-55.775-117.783-77.612-46.427-24.187-95.015-42.748-145.721-55.762-21.321-5.472-42.868-9.877-64.616-13.24-13.008-2.011-26.076-3.583-39.191-4.825-15.277-1.447-30.568-2.564-45.904-2.893-29.251-.627-58.46-.05-87.599,2.999-10.586,1.108-21.172,2.222-31.691,3.784-21.585,3.206-42.993,7.354-64.202,12.555-64.579,15.837-125.526,40.612-182.83,74.279-62.423,36.675-117.746,82.059-166.027,136.026-20.852,23.308-40.071,47.883-57.616,73.761-35.957,53.034-64.094,109.949-84.471,170.692-8.725,26.009-15.824,52.466-21.455,79.311-2.998,14.293-5.537,28.68-7.585,43.137-1.542,10.887-2.752,21.82-3.859,32.769-1.217,12.033-2.195,24.09-2.608,36.153-.84,24.531-1.001,49.072.516,73.606.802,12.968,1.941,25.892,3.288,38.811,1.685,16.154,4.118,32.196,7.037,48.155,4.805,26.265,11.124,52.175,18.919,77.724,15.116,49.542,35.445,96.833,61.048,141.858,31.052,54.607,68.811,104.12,113.151,148.601,16.192,16.243,33.199,31.606,50.935,46.165,39.215,32.191,81.446,59.757,126.715,82.645,33.712,17.044,68.619,31.174,104.696,42.412,43.181,13.452,87.28,22.48,132.248,27.136,14.528,1.504,29.126,2.62,43.72,3.135,26.704.943,53.406.694,80.076-1.529,16.365-1.364,32.663-3.136,48.915-5.484,18.397-2.657,36.634-6.143,54.714-10.388,63.811-14.983,124.27-38.602,181.249-71.01,65.345-37.167,123.155-83.72,173.427-139.628,25.398-28.246,48.362-58.333,68.862-90.312,22.945-35.793,42.433-73.369,58.561-112.704,14.95-36.46,26.634-73.938,35.269-112.372,3.359-14.954,6.266-30.006,8.547-45.158,1.959-13.012,3.618-26.068,4.895-39.178,1.242-12.753,2.172-25.524,2.777-38.312.494-10.453.442-20.931.618-30.621-.361-14.85-.215-28.921-1.203-42.986Zm-300.279,46.524c6.84,5.316,13.718,10.583,20.596,15.85,27.511,21.068,55.027,42.131,82.546,63.189,1.708,1.307,3.457,2.561,5.488,4.062,1.071-1.67.688-2.949.683-4.161-.047-11.011-.138-22.021-.208-33.031-.008-1.261-.024-2.527.064-3.784.072-1.023.728-1.604,1.755-1.66,1.26-.069,2.524-.102,3.786-.114,8.665-.08,17.33-.117,25.995-.231,17.506-.23,35.012-.502,52.518-.752,1.263-.018,2.529-.048,3.79.01,2.02.092,2.554.569,2.408,2.665-.451,6.477-.818,12.97-1.584,19.413-1.129,9.485-2.494,18.945-3.9,28.395-3.241,21.779-7.966,43.249-13.751,64.487-17.95,65.895-46.445,126.898-85.247,183.076-15.713,22.751-33.006,44.253-51.733,64.616-34.029,37.001-72.116,69.188-114.311,96.483-56.57,36.595-117.625,62.734-183.229,78.231-18.267,4.315-36.694,7.735-55.27,10.324-9.463,1.319-18.995,2.14-28.498,3.166-1.675.181-2.418-.404-2.466-2.018-.065-2.163,0-4.331.011-6.496.126-25.631.237-51.262.39-76.893.039-6.51-.557-6.146,6.204-6.059,10.105.13,20.21.327,30.315.479,1.441.022,2.885-.025,4.326-.091.777-.035,1.286-.926.878-1.531-.806-1.195-1.644-2.372-2.512-3.523-26.301-34.867-52.606-69.73-78.915-104.59-.539-.714-1.135-1.384-1.75-2.13-1.706.256-2.319,1.672-3.142,2.726-10.443,13.369-20.844,26.771-31.264,40.158-16.074,20.651-32.154,41.296-48.232,61.944-1.188,1.526-2.441,3.012-3.375,4.782,1.57,1.159,3.039.743,4.397.768,11.007.207,22.015.364,33.022.54.901.014,1.806.02,2.701.108,1.022.1,1.619.72,1.665,1.749.065,1.441.094,2.885.087,4.328-.121,24.367-.235,48.735-.392,73.102-.024,3.787-.234,7.573-.403,11.358-.057,1.284-.829,1.958-2.119,1.908-3.067-.119-6.147-.126-9.195-.438-13.453-1.375-26.896-2.789-40.275-4.852-21.232-3.274-42.204-7.692-62.948-13.244-31.435-8.414-61.915-19.471-91.494-33.023-42.529-19.485-82.126-43.78-118.857-72.723-28.57-22.512-54.87-47.43-78.863-74.791-25.305-28.857-47.677-59.803-67.061-92.926-19.469-33.267-35.542-68.094-48.286-104.464-10.215-29.153-18.091-58.935-23.668-89.307-3.061-16.67-5.521-33.439-6.994-50.342-.36-4.132-.949-8.244-.955-12.401-.001-.99.469-1.737,1.575-1.806,1.079-.067,2.162-.101,3.244-.101,27.802-.018,55.604-.029,83.406-.044,5.413-.003,5.378-.274,5.38,5.286.004,10.469.045,20.938.07,31.407.003,1.083-.027,2.168.024,3.248.032.691-.131,1.496.614,1.955.761.468,1.342-.056,1.915-.448.595-.408,1.168-.848,1.736-1.294,25.413-19.947,50.824-39.896,76.234-59.846,8.517-6.687,17.03-13.38,25.545-20.071.993-.781,2.012-1.531,2.975-2.347,1.108-.94,1.098-1.656-.109-2.621-3.523-2.818-7.071-5.606-10.625-8.386-30.988-24.244-61.971-48.494-92.996-72.69-1.447-1.128-2.813-3.648-4.831-2.486-1.459.84-.589,3.326-.597,5.07-.05,10.108-.022,20.217-.027,30.325,0,1.444,0,2.889-.064,4.331-.057,1.302-.83,1.913-2.105,1.933-.903.014-1.805.033-2.708.033-28.163.014-56.326.027-84.489.04-.542,0-1.084.012-1.625-.005-2.937-.09-3.005-.173-2.803-3.113,3.171-46.082,11.823-91.139,25.582-135.207,20.631-66.076,51.884-126.729,93.524-182.021,20.79-27.606,43.841-53.204,69.116-76.769,36.883-34.389,77.449-63.69,121.796-87.742,30.367-16.469,61.931-30.169,94.727-41.008,26.229-8.669,52.928-15.491,80.147-20.31,13.86-2.454,27.781-4.407,41.751-6.022,6.446-.745,12.943-1.075,19.423-1.5,2.1-.138,2.496.345,2.599,2.477.061,1.261.036,2.526.036,3.79.002,29.784.003,59.567,0,89.351,0,6.203.48,6.003-5.764,5.998-10.471-.009-20.942-.014-31.413.012-1.422.004-2.889-.291-4.253.376-.473,1.312.564,2.003,1.185,2.815,13.811,18.065,27.631,36.123,41.465,54.171,12.846,16.758,25.719,33.496,38.557,50.26,3.069,4.007,3.03,4.308,6.338-.018,22.034-28.816,44.127-57.588,66.199-86.374,4.393-5.729,8.794-11.451,13.164-17.197.734-.964,2.187-1.895,1.656-3.154-.703-1.665-2.539-.84-3.85-.852-8.484-.078-16.97-.039-25.455-.041-3.069,0-6.14.049-9.207-.032-2.346-.061-2.859-.615-2.973-2.872-.054-1.081-.02-2.166-.02-3.249,0-29.784-.002-59.567,0-89.351,0-6.301-.528-6.292,6.307-5.576,8.07.846,16.125,1.828,24.184,2.776,14.157,1.666,28.196,4.095,42.145,6.98,36.479,7.543,71.926,18.464,106.319,32.802,46.39,19.339,89.539,44.281,129.571,74.647,27.106,20.561,52.24,43.313,75.416,68.2,31.37,33.687,58.527,70.503,81.403,110.462,21.319,37.24,38.455,76.31,51.382,117.231,8.049,25.481,14.366,51.388,18.939,77.704,2.562,14.742,4.628,29.564,5.959,44.485.433,4.853.891,9.698,1.09,14.566.051,1.251-.522,2.065-1.84,2.138-1.26.07-2.524.081-3.787.093-8.123.074-16.247.109-24.37.218-17.506.234-35.012.505-52.518.76-1.083.016-2.166.018-3.249.023-6.212.029-5.652.48-5.775-5.939-.211-11.005-.399-22.011-.605-33.016-.013-.718-.077-1.438-.159-2.152-.082-.722-1.005-1.137-1.607-.678-2.15,1.64-4.288,3.297-6.397,4.989-32.374,25.982-64.743,51.971-97.113,77.958-.704.565-1.426,1.108-2.103,1.703-1.655,1.454-1.713,2.052.006,3.388Z"/>
      <path class="cls-4" d="m1323.47,591.369c-9.428,11.627-18.78,23.317-28.301,34.868-19.507,23.667-39.388,47.018-59.55,70.129-11.267,12.915-22.615,25.761-34.077,38.502-31.617,35.146-63.838,69.732-96.885,103.539-15.513,15.869-31.267,31.503-46.915,47.24-1.145,1.151-2.29,2.305-3.479,3.41-1.58,1.469-1.972,1.501-3.592-.07-10.619-10.3-21.213-20.626-31.807-30.952-.252-.245-.402-.594-.605-.903.36-1.522,1.65-2.316,2.666-3.292,21.862-20.998,43.98-41.722,66.358-62.168,13.186-12.047,26.38-24.088,39.652-36.04,22.523-20.283,45.243-40.344,68.27-60.053,18.366-15.719,36.695-31.484,55.255-46.972,20.498-17.106,41.234-33.928,61.884-50.852,3.206-2.628,6.506-5.141,9.762-7.707,1.111-.237,1.557.212,1.363,1.321Z"/>
      <path class="cls-4" d="m737.54,897.363c.548-1.965,1.062-3.793,1.566-5.623,10.174-36.945,28.562-69.182,55.401-96.565,4.756-4.853,3.951-4.617,8.924-.517,17.126,14.121,34.283,28.204,51.421,42.31.973.801,1.9,1.659,2.821,2.521.47.44.379,1.059.047,1.459-.569.687-1.264,1.274-1.934,1.873-19.549,17.481-33.329,38.717-41.429,63.646-2.109,6.49-1.068,5.619-7.696,5.656-9.025.05-18.051.013-27.076.013h-4.729c-.753,1.626.507,2.117,1.24,2.733,7.464,6.265,14.964,12.488,22.454,18.721,2.497,2.078,4.984,4.168,7.501,6.221,1.062.866,1.566,1.924,1.498,3.294-.063,1.261-.074,2.526-.095,3.789-.439,27.129,5.88,52.535,19.42,76.097.18.313.395.605.568.921,1.242,2.269,1.264,2.407-.504,4.166-2.943,2.928-5.931,5.81-8.91,8.701-12.303,11.943-24.604,23.887-36.918,35.818-1.944,1.883-3.925,3.73-5.934,5.543-1.039.938-1.854.868-2.687-.358-3.04-4.477-6.16-8.91-8.976-13.526-10.964-17.977-19.158-37.153-24.556-57.514-.368-1.389-.804-2.761-1.203-4.123-1.527.004-1.688,1.23-2.123,2.119-12.725,25.995-23.204,52.824-29.659,81.101-2.65,11.608-4.711,23.33-5.075,35.282-.033,1.08-.078,2.17-.255,3.233-.158.95-.659,1.657-1.827,1.425-1.062-.211-2.131-.381-3.19-.604-4.47-.94-4.521-.947-4.312-5.695.508-11.567,2.456-22.939,4.947-34.215,5.391-24.395,13.744-47.797,24.022-70.529,3.046-6.737,6.296-13.382,9.515-20.039,2.424-5.011,2.469-4.997-3.353-5.019-3.791-.014-7.581-.008-11.372.003-2.527.007-5.055-.002-7.58.074-2.315.07-2.806.514-2.798,2.947.026,8.48.141,16.96.212,25.44.021,2.52.031,5.042-.008,7.562-.011.729-.996,1.276-1.566.915-.76-.481-1.498-1.002-2.208-1.554-30.209-23.473-60.414-46.95-90.615-70.433-1.125-.875-2.386-1.63-3.243-3.268,32.033-25.368,64.074-50.671,96.865-76.558.116,2.869.241,4.609.248,6.349.034,8.663.032,17.326.056,25.989.004,1.441.04,2.884.129,4.322.049.787.517,1.311,1.335,1.44.355.056.714.124,1.071.123,7.942-.012,15.884-.018,23.825-.066,1.428-.009,1.908-.789,1.319-2.116-2.564-5.768-5.235-11.489-7.749-17.279-10.214-23.532-18.725-47.649-24.705-72.62-3.785-15.802-6.437-31.76-7.541-48.017-.9-13.255-.179-26.307,2.548-39.262,1.456-6.916,3.85-13.521,7.467-19.635.793-1.34,1.432-1.498,2.579-.644,1.302.97,2.581,1.976,3.815,3.03,2.098,1.791,2.141,1.843.784,4.517-4.313,8.496-6.214,17.598-7.235,26.998-2.091,19.249.328,38.172,3.962,56.989,5.91,30.603,16.174,59.818,28.698,88.283.617,1.402.819,3.166,2.803,4.158Z"/>
      <path class="cls-4" d="m1209.857,740.074c1.083,4.117,1.274,7.528,1.58,10.942.969,10.828.519,21.651-.355,32.431-.99,12.221-2.983,24.326-5.57,36.321-6.487,30.087-16.565,58.978-29.18,87.003-2.961,6.577-2.271,6.065,3.732,6.082,5.234.015,10.467.119,15.7.118,1.732,0,2.293-.557,2.397-2.21.102-1.619.088-3.246.099-4.87.068-9.564.124-19.128.202-28.692.004-.496-.104-1.204.581-1.314.462-.074,1.093.04,1.452.321,4.122,3.222,8.217,6.479,12.298,9.753,25.473,20.438,50.943,40.881,76.406,61.332,1.947,1.564,3.918,3.111,5.773,4.833-.505.729-.715,1.261-1.104,1.56-31.9,24.485-63.814,48.951-95.597,73.32-1.742-.62-1.257-1.873-1.254-2.823.024-9.383.107-18.767.17-28.15.009-1.263.046-2.528-.007-3.789-.077-1.835-.514-2.412-2.131-2.46-7.933-.233-15.868-.423-23.803-.583-1.493-.03-1.904.691-1.275,2.067.599,1.311,1.275,2.588,1.923,3.877,11.778,23.41,21.693,47.562,29.01,72.752,4.233,14.57,7.39,29.373,9.082,44.444,1.392,12.391,1.85,24.836.118,37.254-1.553,11.131-4.169,21.96-9.515,31.968-1.102,2.062-2.098,4.196-3.729,5.886-1.049-.022-1.65-.718-2.238-1.368-1.442-1.598-3.738-2.759-4.18-4.835-.455-2.139,1.547-3.89,2.497-5.784,3.929-7.836,6.026-16.215,7.333-24.795,1.363-8.944,1.653-17.979,1.026-26.996-.989-14.232-3.278-28.269-6.74-42.126-5.923-23.704-14.522-46.43-24.739-68.578-1.888-4.093-3.864-8.147-5.845-12.197-.792-1.618-1.687-3.188-2.59-4.748-.138-.239-.587-.448-.862-.415-.284.033-.7.333-.769.593-.829,3.133-1.587,6.285-2.396,9.423-8.483,32.892-24.048,62.075-46.063,87.876-.818.958-1.702,1.863-2.596,2.751-.227.226-.612.293-.924.433-4.296-3.628-48.321-48.824-51.003-52.395.696-.97,1.374-2.028,2.161-2.996,13.416-16.502,22.554-35.134,27.789-55.714.222-.873.432-1.749.674-2.616.387-1.387,1.284-2.082,2.757-2.054,1.443.028,2.887-.015,4.331-.015,13.717-.002,27.434.004,41.151-.008,1.44-.001,2.888-.024,4.315-.19.459-.053.99-.7.56-1.218-1.028-1.241-2.141-2.419-3.296-3.545-14.343-13.983-28.701-27.951-43.053-41.925-1.034-1.007-2.033-2.052-3.095-3.029-1.25-1.151-1.856-2.523-2.129-4.226-2.265-14.168-6.7-27.651-13.027-40.519-.318-.647-.645-1.29-.943-1.947-.412-.909-.256-1.776.367-2.514.58-.688,1.242-1.307,1.874-1.952,15.913-16.242,31.824-32.485,47.744-48.721.754-.769,1.532-1.53,2.386-2.179.415-.315,1.047-.311,1.438.211.539.719,1.068,1.448,1.548,2.207,14.811,23.429,24.952,48.712,30.205,75.946.311,1.614-.168,4.194,2.026,4.337,1.536.1,1.903-2.32,2.565-3.737,13.405-28.682,23.952-58.364,30.735-89.31,3.128-14.27,5.27-28.7,6.074-43.333.417-7.589.655-15.135-.167-22.687-.274-2.517.299-4.543,2.185-6.303,1.939-1.809,3.354-4.158,5.907-6.174Z"/>
      <path class="cls-4" d="m971.426,920.598c-66.293-54.634-132.576-109.28-198.881-163.899-66.282-54.6-132.559-109.207-198.716-163.732.534-1.279,1.282-1.211,1.986-1.218,1.264-.012,2.528-.01,3.791-.01,47.482,0,94.964,0,142.446,0,.903,0,1.814.081,2.707-.014,2.948-.314,5.087.91,7.163,2.976,9.727,9.675,19.572,19.231,29.401,28.803,26.64,25.945,53.292,51.877,79.94,77.813,26.26,25.558,52.524,51.113,78.783,76.672,28.587,27.826,57.17,55.657,85.756,83.485,26.646,25.939,53.291,51.878,79.942,77.812,9.315,9.064,18.65,18.107,27.966,27.169,1.034,1.006,2.031,2.052,3.001,3.118.443.487-.104,1.515-.825,1.553-1.26.066-2.523.103-3.784.103-8.305,0-16.61-.021-24.914-.022-36.469-.003-72.938-.002-109.407-.003h-4.674c-.656,1.391.152,1.962.752,2.58,2.263,2.332,4.549,4.641,6.821,6.965,21.2,21.686,42.406,43.366,63.596,65.061,30.146,30.864,60.286,61.732,90.416,92.611,19.162,19.638,38.302,39.299,57.452,58.949,1.008,1.034,2.002,2.083,3.034,3.092,2.013,1.966,2.225,1.964,4.251-.279,3.751-4.152,7.463-8.339,11.212-12.492,8.103-8.978,16.218-17.945,24.333-26.912.726-.802,1.466-1.596,2.248-2.344.782-.748,1.602-.548,2.142.491.333.64.632,1.299.919,1.961,16.674,38.381,33.343,76.764,50.017,115.146,9.271,21.342,18.552,42.679,27.822,64.021.917,2.111,1.958,4.183,2.503,6.298-.35.329-.462.501-.618.563-.148.058-.358.046-.513-.012-61.434-22.619-122.865-45.245-184.294-67.877-.503-.185-.996-.429-1.445-.721-.282-.184-.473-.509-.867-.954,12.831-15.047,26.146-29.725,39.235-45.127-2.439-2.074-4.59-3.935-6.776-5.756-23.16-19.292-46.323-38.582-69.492-57.863-22.753-18.935-45.522-37.85-68.269-56.792-22.747-18.942-45.465-37.919-68.214-56.859-24.413-20.326-48.852-40.62-73.268-60.942-18.313-15.242-36.608-30.504-54.91-45.758-9.151-7.627-18.305-15.25-27.448-22.887-.824-.688-1.628-1.415-2.339-2.216-.45-.508-.057-1.154.444-1.199,1.613-.145,3.241-.15,4.864-.15,35.025-.006,70.049-.005,105.074-.005,18.054,0,36.108.005,54.162-.008,1.739-.001,3.477-.108,5.216-.166.087-.342.174-.685.261-1.027Z"/>
      <path class="cls-4" d="m1133.287,1213.794c-2.314,0-4.632.095-6.94-.015-22.253-1.064-44.049-4.888-65.492-10.858-23.336-6.496-45.906-15.036-67.834-25.303-1.307-.612-2.618-1.214-3.945-1.781-.308-.132-.687-.1-1.006-.139-.8.056-.804.714-.807,1.19-.064,8.301-.124,16.602-.114,24.903.003,2.4.414,2.793,2.891,2.811,9.024.067,18.05.007,27.073.135,2.224.031,4.653-.823,6.655.952-.459,2.248-2.209,3.67-3.506,5.358-22.211,28.899-44.444,57.78-66.702,86.643-1.4,1.815-2.62,3.839-4.469,5.164-1.634-.746-2.281-2.084-3.139-3.207-22.767-29.837-45.525-59.68-68.277-89.527-.983-1.29-1.924-2.612-2.841-3.95-.423-.617.016-1.573.719-1.606,1.44-.069,2.882-.114,4.324-.113,8.483.003,16.966.023,25.45.033,1.263.001,2.529.028,3.789-.044,1.683-.097,2.067-.541,2.194-2.384.05-.719.049-1.443.051-2.164.021-7.76.041-15.52.052-23.28.001-.887.165-1.807-.459-2.665-1.908-.293-3.346,1.015-4.928,1.757-19.616,9.205-39.684,17.243-60.382,23.696-15.515,4.837-31.276,8.61-47.318,11.2-3.025.489-6.077.804-9.116,1.204-1.421.187-2.479-.227-2.913-1.713-.694-2.381-1.86-4.658-1.941-7.511,39.05-4.35,75.472-16.661,110.817-32.581,3.412-1.537,6.884-2.985,10.889-5.45-27.252-5.762-51.885-15.614-74.488-30.339-2.837-1.848-5.911-3.413-8.34-6.144.71-.796,1.26-1.494,1.891-2.109,16.536-16.131,33.073-32.26,49.627-48.372,3.7-3.602,2.767-3.281,7.218-.822,14.854,8.203,30.724,13.402,47.468,15.823,17.315,2.504,34.543,1.654,51.607-2.25.351-.08.699-.187,1.035-.317,2.269-.882,4.129-.287,5.95,1.28,4.651,4,9.405,7.88,14.119,11.807,14.558,12.127,29.113,24.257,43.676,36.379,4.136,3.443,4.164,3.471-.665,5.91-15.685,7.92-32.084,13.882-49.216,17.81-1.581.363-3.166.711-4.743,1.093-.329.079-.629.275-.947.419.38,1.187,1.477,1.468,2.431,1.927,31.179,14.988,63.542,26.523,97.562,33.099,9.553,1.846,19.189,3.372,28.951,3.693,2.454.081,4.542.741,6.395,2.421,2.645,2.398,5.425,4.647,8.147,6.96-.151.327-.302.654-.453.981Z"/>
      <path class="cls-4" d="m857.221,700.611c9.626,3.126,18.839,7.276,27.964,11.586,8.643,4.083,17.111,8.534,25.66,12.814,1.123.562,2.25,1.137,3.428,1.556.425.152,1.07-.043,1.177-.741.054-.355.137-.712.135-1.068-.027-5.595-.029-11.191-.119-16.786-.04-2.486-.448-2.887-2.789-2.915-3.249-.039-6.499.021-9.748.048-7.221.06-14.442.131-21.662.183-.867.006-1.786.212-2.541-.45-.046-.175-.131-.35-.129-.523.002-.166.054-.36.152-.491,24.243-32.559,48.493-65.113,72.601-97.478,1.719-.078,2.081,1.097,2.702,1.886,21.116,26.788,42.219,53.586,63.321,80.385,3.238,4.112,6.463,8.233,9.69,12.354.435.556,1.016,1.142.754,1.887-.283.806-1.126.777-1.833.788-4.151.061-8.303.106-12.455.15-6.679.072-13.358.136-20.037.211-1.221.014-2.165.5-2.183,1.839-.092,6.639.02,13.276.089,19.861,2.207.408,3.473-.831,4.846-1.561,12.914-6.869,26.162-13.024,39.691-18.567,19.569-8.017,39.614-14.554,60.414-18.52,14.028-2.675,28.199-4.256,42.517-3.51,12.136.632,24.014,2.655,35.273,7.488,1.821.782,3.606,1.656,5.369,2.563.44.226.731.741,1.12,1.154-.358.477-.611.99-1.014,1.319-1.949,1.59-3.729,3.685-5.972,4.533-2.194.829-4.367-1.22-6.534-2.014-8.549-3.134-17.427-4.657-26.448-5.238-12.664-.816-25.239.303-37.727,2.45-27.209,4.678-52.988,13.815-78.059,25.131-8.552,3.86-17.017,7.906-25.248,12.419-1.055.578-2.448.771-2.954,2.168.048,1.077.991.831,1.583.974,29.356,7.093,56.007,19.871,80.026,38.137,2.227,1.694,4.898,3.009,6.15,5.778-1.506,2.302-3.742,3.886-5.708,5.724-15.431,14.418-30.896,28.8-46.351,43.193-.528.492-1.071.97-1.577,1.484-1.044,1.059-2.079,1.135-3.36.298-2.717-1.777-5.467-3.511-8.276-5.138-15.315-8.874-31.714-14.652-49.264-17.091-3.081-.428-5.722-1.327-8.119-3.679-21.646-21.238-43.434-42.331-65.163-63.484-1.131-1.101-2.519-2.036-3.144-3.784,4.089-1.815,8.475-2.073,12.433-3.348.153-1.595-.976-1.678-1.632-2.023-9.259-4.877-18.537-9.73-28.186-13.794-4.075-1.716-7.591-4.022-10.603-7.255-3.07-3.295-6.336-6.407-9.517-9.599-.24-1.071.103-1.579,1.258-1.302Z"/>
      <path class="cls-7" d="m600.531,601.204h4.997c38.094,0,76.187,0,114.281,0,.722,0,1.45.061,2.165-.009,1.962-.191,3.417.627,4.79,1.977,3.86,3.796,7.846,7.463,11.72,11.245,10.978,10.72,21.908,21.49,32.889,32.208,14.339,13.995,28.707,27.959,43.064,41.935,12.546,12.213,25.095,24.423,37.641,36.637,14.486,14.102,28.969,28.208,43.455,42.31,13.322,12.968,26.649,25.933,39.973,38.9,14.1,13.723,28.199,27.446,42.298,41.169,13.065,12.716,26.131,25.43,39.194,38.147,13.969,13.599,27.929,27.206,41.904,40.799,9.963,9.691,19.943,19.364,29.913,29.047,1.036,1.006,2.09,1.997,3.068,3.057.446.483,1.232.985.709,1.806-.437.687-1.257.49-1.941.529-.54.031-1.083.01-1.624.011-1.083,0-2.166,0-3.25,0-43.51,0-87.02-.014-130.53.048-1.856.003-3.949-.894-5.612.782.371,1.942,2.052,2.883,3.272,4.132,21.94,22.476,43.92,44.912,65.878,67.371,15.143,15.488,30.264,30.998,45.397,46.497,14.628,14.982,29.259,29.961,43.886,44.943,15.006,15.37,30.01,30.741,45.013,46.113,13.364,13.693,26.722,27.392,40.093,41.078,1.37,1.402,2.813,2.733,4.45,4.318,4.344-4.742,8.487-9.219,12.577-13.743,4.236-4.685,8.413-9.423,12.629-14.125,4.05-4.517,8.295-8.842,12.296-13.664,3.088,4.808,65.737,149.043,67.435,154.719-.326.089-.711.338-.969.243-50.238-18.487-100.467-36.997-150.688-55.53-.455-.168-.794-.652-1.148-.955.129-1.277,1.016-1.977,1.717-2.779,10.455-11.954,20.918-23.9,31.377-35.85.712-.814,1.428-1.627,2.103-2.471.689-.862.456-1.671-.289-2.361-.529-.49-1.111-.92-1.665-1.383-12.198-10.168-24.392-20.34-36.592-30.504-11.923-9.934-23.855-19.857-35.779-29.79-14.003-11.666-27.997-23.343-42.004-35.006-11.926-9.93-23.864-19.845-35.794-29.77-14.288-11.886-28.577-23.772-42.86-35.665-11.649-9.699-23.287-19.411-34.936-29.111-12.203-10.161-24.417-20.309-36.618-30.473-11.785-9.818-23.549-19.662-35.338-29.474-15.95-13.275-31.92-26.526-47.87-39.801-2.493-2.075-4.926-4.222-7.372-6.352-.075-.065.013-.317.025-.481.1-.122.178-.285.306-.357.151-.085.345-.117.523-.125.541-.023,1.082-.031,1.624-.032,55.606-.006,111.212-.012,166.818-.02.179,0,.36-.028.536-.063.167-.033.328-.094.541-.157.565-1.682-.999-2.134-1.838-2.837-6.918-5.791-13.897-11.511-20.86-17.249-13.647-11.246-27.297-22.489-40.945-33.733-13.091-10.786-26.182-21.574-39.272-32.361-13.647-11.246-27.29-22.497-40.941-33.739-11.004-9.062-22.023-18.107-33.027-27.169-13.373-11.012-26.738-22.033-40.104-33.053-13.227-10.906-26.448-21.818-39.676-32.722-13.646-11.248-27.297-22.488-40.945-33.733-13.091-10.787-26.181-21.575-39.271-32.362-13.647-11.246-27.29-22.497-40.942-33.736-5.015-4.129-10.067-8.213-15.068-12.358-1.508-1.25-3.227-2.304-4.788-4.916Z"/>
      <path class="cls-4" d="m910.55,1026.912c-.502-.513-1.089-.944-1.642-1.407-8.173-6.827-16.338-13.663-24.526-20.473-3.446-2.866-6.938-5.676-10.618-8.681-2.565,2.404-4.955,4.582-7.276,6.832-25.531,24.754-51.06,49.509-76.57,74.285-21.625,21.003-43.224,42.033-64.836,63.051-.906.881-1.842,1.732-2.727,2.633-1.197,1.219-2.417,1.154-3.91.449-3.585-1.693-7.159-3.463-10.883-4.799-22.735-8.159-45.461-9.096-68.104.424-.665.28-1.338.556-2.031.751-2.456.692-4.819-.405-5.673-2.801-.415-1.162-.524-2.456-.627-3.703-.178-2.157-.134-4.336-.377-6.484-.556-4.906-2.005-9.546-4.84-13.63-5.599-8.065-13.384-8.053-18.763.124-4.542,6.906-5.841,14.69-5.093,22.78.64,6.935,3.858,12.681,8.992,17.381,6.391,5.85,12.751,11.734,19.116,17.612,1.572,1.451,3.112,2.936,4.576,4.319-.762,1.535-1.922,1.468-2.963,1.653-18.66,3.323-34.221,12.167-46.517,26.548-11.927,13.951-18.009,30.217-18.416,48.584-.223,10.056,1.537,19.78,5.368,29.051,1.202,2.909.849,4.779-1.155,7.219-7.353,8.953-9.477,19.5-7.124,30.586,4.473,21.072,24.407,30.952,40.644,28.428,16.965-2.637,30.349-17.764,30.709-34.186.04-1.803.005-3.61-.064-5.412-.045-1.176.345-2.117,1.235-2.849.976-.801,1.963-1.591,2.972-2.349,7.217-5.417,14.481-10.774,21.653-16.25,8.334-6.363,16.364-13.082,23.022-21.258,3.19-3.917,6.276-7.92,9.342-11.935,2.957-3.872,5.787-7.841,8.753-11.706,1.506-1.963,1.932-1.962,3.862-.192,5.189,4.758,10.339,9.557,15.503,14.342,16.154,14.968,32.302,29.942,48.474,44.889,1.047.968,2.168,2.004,3.449,2.549,8.184,3.482,16.651,4.595,25.384,2.471,2.283-.555,4.432-1.544,6.376-2.902,4.488-3.135,5.725-7.968,3.292-12.841-1.063-2.13-2.541-3.921-4.373-5.446-3.656-3.043-7.723-5.34-12.312-6.594-2.951-.806-5.974-1.35-8.954-2.055-4.424-1.046-6.603-4.42-5.72-8.904.278-1.411.741-2.786,1.115-4.179,3.324-12.398,3.779-24.942,1.585-37.549-2.407-13.829-7.242-26.779-14.718-38.698-1.341-2.139-2.748-4.238-4.167-6.327-2.248-3.309-2.272-3.308.769-6.257,1.684-1.633,3.426-3.207,5.105-4.846,24.935-24.333,49.852-48.682,74.796-73.005,21.842-21.298,43.712-42.565,65.566-63.851,1.163-1.133,2.322-2.274,3.418-3.47.552-.602.468-1.343-.099-1.922Zm-244.316,186.377c-9.06,7.125-18.391,13.906-26.949,21.667-7.508,6.808-14.012,14.5-20.383,22.327-4.207,5.169-8.43,10.326-12.568,15.55-1.244,1.571-2.668,2.164-4.655,2.04-3.053-.189-6.109-.176-9.139.534-1.677.393-2.256-.015-2.901-1.598-1.502-3.687-2.543-7.544-3.044-11.458-2.029-15.839,1.097-30.512,10.792-43.419,9.869-13.14,23.026-20.906,39.302-23.46,5.939-.932,11.819-1.06,17.729.042,1.069.199,2.111.353,2.985,1.104,4.632,3.979,9.013,8.218,13.385,12.443-1.247,2.039-3.012,3.016-4.554,4.229Z"/>
    </g>
  </g>
  <g id="Camada_5" data-name="Camada 5">
    <text class="cls-8" transform="translate(134.444 903.462) rotate(-84.615)"><tspan x="0" y="0">S</tspan></text>
    <text class="cls-8" transform="translate(141.011 831.011) rotate(-79.085)"><tspan x="0" y="0">O</tspan></text>
    <text class="cls-8" transform="translate(157.228 747.883) rotate(-73.31)"><tspan x="0" y="0">C</tspan></text>
    <text class="cls-8" transform="translate(180.543 672.991) rotate(-69.453)"><tspan x="0" y="0">I</tspan></text>
    <text class="cls-8" transform="translate(190.614 644.26) rotate(-65.815)"><tspan x="0" y="0">E</tspan></text>
    <text class="cls-8" transform="translate(220.296 577.91) rotate(-60.48)"><tspan x="0" y="0">D</tspan></text>
    <text class="cls-8" transform="translate(259.09 509.468) rotate(-54.956)"><tspan x="0" y="0">A</tspan></text>
    <text class="cls-8" transform="translate(304.289 445.083) rotate(-49.451)"><tspan x="0" y="0">D</tspan></text>
    <text class="cls-8" transform="translate(355.545 385.433) rotate(-44.166)"><tspan x="0" y="0">E</tspan></text>
    <text class="cls-8" transform="translate(407.957 335.46) rotate(-40.573)"><tspan x="0" y="0"> </tspan></text>
    <text class="cls-8" transform="translate(430.605 315.037) rotate(-36.764)"><tspan x="0" y="0">D</tspan></text>
    <text class="cls-8" transform="translate(493.59 267.833) rotate(-31.036)"><tspan x="0" y="0">O</tspan></text>
    <text class="cls-8" transform="translate(566.308 224.451) rotate(-25.496)"><tspan x="0" y="0">S</tspan></text>
    <text class="cls-8" transform="translate(631.975 193.887) rotate(-21.862)"><tspan x="0" y="0"> </tspan></text>
    <text class="cls-8" transform="translate(659.983 181.797) rotate(-18.007)"><tspan x="0" y="0">C</tspan></text>
    <text class="cls-8" transform="translate(734.806 157.511) rotate(-12.44)"><tspan x="0" y="0">A</tspan></text>
    <text class="cls-8" transform="translate(811.629 140.603) rotate(-6.895)"><tspan x="0" y="0">D</tspan></text>
    <text class="cls-8" transform="translate(889.721 131.335) rotate(-1.615)"><tspan x="0" y="0">E</tspan></text>
    <text class="cls-8" transform="translate(962.317 129.437) rotate(3.194)"><tspan x="0" y="0">T</tspan></text>
    <text class="cls-8" transform="translate(1028.777 133.037) rotate(8.059)"><tspan x="0" y="0">E</tspan></text>
    <text class="cls-8" transform="translate(1100.715 143.247) rotate(13.182)"><tspan x="0" y="0">S</tspan></text>
    <text class="cls-8" transform="translate(1171.091 160.429) rotate(16.824)"><tspan x="0" y="0"> </tspan></text>
    <text class="cls-8" transform="translate(1200.5 168.495) rotate(20.68)"><tspan x="0" y="0">D</tspan></text>
    <text class="cls-8" transform="translate(1274.069 196.301) rotate(26.237)"><tspan x="0" y="0">A</tspan></text>
    <text class="cls-8" transform="translate(1344.063 231.711) rotate(30.075)"><tspan x="0" y="0"> </tspan></text>
    <text class="cls-8" transform="translate(1370.811 246.295) rotate(33.899)"><tspan x="0" y="0">A</tspan></text>
    <text class="cls-8" transform="translate(1436.005 290.305) rotate(39.199)"><tspan x="0" y="0">E</tspan></text>
    <text class="cls-8" transform="translate(1492.394 336.155) rotate(44.484)"><tspan x="0" y="0">R</tspan></text>
    <text class="cls-8" transform="translate(1548.611 391.207) rotate(50.189)"><tspan x="0" y="0">O</tspan></text>
    <text class="cls-8" transform="translate(1602.713 456.403) rotate(55.907)"><tspan x="0" y="0">N</tspan></text>
    <text class="cls-8" transform="translate(1646.784 521.569) rotate(61.432)"><tspan x="0" y="0">Á</tspan></text>
    <text class="cls-8" transform="translate(1684.381 590.679) rotate(66.981)"><tspan x="0" y="0">U</tspan></text>
    <text class="cls-8" transform="translate(1714.85 663.152) rotate(72.118)"><tspan x="0" y="0">T</tspan></text>
    <text class="cls-8" transform="translate(1734.697 726.456) rotate(75.544)"><tspan x="0" y="0">I</tspan></text>
    <text class="cls-8" transform="translate(1743.067 755.759) rotate(79.393)"><tspan x="0" y="0">C</tspan></text>
    <text class="cls-8" transform="translate(1757.51 833.091) rotate(84.923)"><tspan x="0" y="0">A</tspan></text>
    <text class="cls-9" transform="translate(1126.721 1842.887) rotate(-13.968)"><tspan x="0" y="0">C</tspan></text>
    <text class="cls-9" transform="translate(1077.209 1850.324) rotate(-9.287)"><tspan x="0" y="0">²</tspan></text>
    <text class="cls-9" transform="translate(986.373 1859.181) rotate(-4.876)"><tspan x="0" y="0">E</tspan></text>
    <text class="cls-9" transform="translate(877.882 1857.494) rotate(1.412)"><tspan x="0" y="0">G</tspan></text>
    <text class="cls-9" transform="translate(783.846 1844.976) rotate(7.743)"><tspan x="0" y="0">E</tspan></text>
    <text class="cls-9" transform="translate(685.306 1821.407) rotate(13.895)"><tspan x="0" y="0">N</tspan></text>
    <g>
      <path class="cls-5" d="m877.05,1678.439c-1.095,9.988-6.678,13.443-12.221,12.836-3.229-.354-5.512-1.839-7.025-3.597l2.424-2.204c1.117,1.303,2.828,2.311,4.678,2.513,3.906.43,7.584-1.934,8.463-9.951.686-6.252-1.366-9.499-5.114-9.91-2.73-.299-5.159,1.426-5.511,4.641-.354,3.229,1.232,5.124,4.405,5.473,1.902.209,4.244-.474,6.542-2.68l-.162,2.921c-2.266,1.833-5.01,2.841-7.464,2.57-4.619-.506-7.608-3.445-7.033-8.691.543-4.956,4.914-7.795,9.529-7.289,5.439.597,9.404,5.031,8.49,13.369Z"/>
      <path class="cls-5" d="m736.242,1648.468c-1.969,6.238-7.926,8.284-13.592,6.495-3.007-.948-4.926-2.85-5.995-4.83l2.585-1.822c1.116,1.708,2.421,2.907,4.231,3.477,4.009,1.266,7.611-.531,8.879-4.548,1.258-3.985-.631-7.482-4.574-8.727-2.211-.697-4.359-.29-6.222.446l-.861-2.96c2.702-1.185,5.672-1.366,8.376-.514,5.842,1.845,9.122,6.804,7.172,12.982Z"/>
      <path class="cls-5" d="m603.625,1584.989l.112.061,1.36-1.717,2.759,1.517-13.664,24.854-3.491-1.919,3.623-6.591,1.885-3.067-.111-.061c-2.297.68-4.885.487-6.805-.568-4.527-2.488-5.182-7.302-2.28-12.579,3.224-5.865,8.743-7.269,12.735-5.074,1.663.915,3.14,2.842,3.877,5.146Zm-13.01,1.846c-1.972,3.587-1.903,6.551,1.183,8.248,1.402.771,3.346.938,5.777.196l4.455-8.104c-.713-2.068-2.067-3.42-3.216-4.052-2.67-1.468-5.974-.338-8.199,3.712Z"/>
      <path class="cls-5" d="m488.865,1508.178l-3.238.485c-.202-1.658-1.064-3.446-2.514-4.663-2.984-2.503-7.379-2.604-12.562,3.572-4.042,4.816-4.095,8.651-1.232,11.054,2.128,1.786,5.083,1.726,7.162-.75,2.088-2.488,1.798-4.966-.647-7.018-1.44-1.209-3.766-1.943-6.901-1.385l1.757-2.339c2.897-.311,5.742.423,7.632,2.01,3.558,2.985,4.386,7.068.994,11.11-3.204,3.819-8.414,3.751-11.945.788-4.189-3.517-5.047-9.427.344-15.851,6.458-7.693,13.043-7.444,17.288-3.881,2.487,2.087,3.561,4.589,3.863,6.866Z"/>
      <path class="cls-5" d="m385.782,1409.546c-3.414,2.748-7.587,1.004-14.351-6.219-1.792,1.626-2.493,3.852-.313,6.559,1.481,1.841,3.785,2.979,5.856,3.766l-1.117,2.853c-2.431-.859-5.571-2.504-7.698-5.146-3.378-4.196-2.726-8.316,1.295-11.554l9.168-7.38,2.063,2.562-1.776,1.838.08.099c2.584.603,5.364,1.854,7.041,3.938,2.343,2.911,2.434,6.525-.248,8.685Zm-8.799-10.688l-3.565,2.869c5.243,5.636,7.87,6.438,9.689,4.974,1.528-1.229,1.057-3.109-.254-4.739-1.309-1.626-3.32-2.56-5.87-3.104Z"/>
      <path class="cls-5" d="m302.119,1293.621c-5.639,2.952-11.278.492-13.704-4.141-2.66-5.081-.837-9.72,3.998-12.252.746-.391,1.511-.675,2.002-.842l7.46,14.246-2.586,1.354-6.308-12.047,1.261.313c-3.751,1.964-4.682,4.764-3.145,7.699,1.587,3.03,5.126,4.345,9.209,2.207,4.253-2.227,4.952-5.992,3.003-9.714-1.014-1.936-2.417-3.193-4.173-4.261l1.584-2.403c2.106,1.166,4.193,3.007,5.585,5.665,2.75,5.254,1.579,11.155-4.188,14.175Z"/>
      <path class="cls-5" d="m253.171,1159.752l-3.008-1.147c1.034-2.055,1.645-4.654.793-7.559-.927-3.16-3.163-5.051-5.666-4.316-2.716.797-3.85,3.571-2.024,9.796l-2.827.828c-1.623-5.53-4.065-7.107-6.473-6.401-2.177.639-2.989,2.907-2.179,5.67.646,2.202,2.197,3.893,4.073,5.107l-1.785,2.685c-2.43-1.59-4.492-3.892-5.415-7.039-1.406-4.792-.145-9.011,3.895-10.195,2.841-.833,5.308.694,7.216,3.397l.153-.045c-.222-3.425,1.094-6.736,4.414-7.71,4.388-1.287,8.226,2.07,9.676,7.017,1.234,4.208.489,7.539-.844,9.913Z"/>
      <path class="cls-5" d="m224.934,1020.262l-2.754-1.664c1.333-1.831,2.48-3.983,2.202-7.109-.3-3.375-2.544-5.843-5.845-5.55-3.253.29-4.907,2.792-4.599,6.255.178,2,.748,3.13,1.894,4.812l-1.089,2.088-12.445.301-1.306-14.673,3.405-.304.997,11.207,6.831.009c-.702-1.341-1.148-2.521-1.303-4.264-.428-4.809,1.695-8.938,7.165-9.425,5.528-.491,9.074,3.817,9.515,8.769.4,4.504-1.032,7.396-2.667,9.548Z"/>
      <path class="cls-5" d="m225.546,872.853l-.013.127,2.111.588-.329,3.131-28.209-2.962.417-3.963,7.481.786,3.558.549.013-.127c-1.518-1.854-2.343-4.314-2.115-6.493.54-5.138,4.723-7.607,10.714-6.979,6.656.699,10.088,5.243,9.613,9.774-.198,1.888-1.403,3.997-3.24,5.568Zm-6.745-11.278c-4.071-.427-6.776.785-7.144,4.288-.167,1.592.433,3.449,2.059,5.402l9.197.966c1.63-1.459,2.352-3.232,2.488-4.535.318-3.03-2.003-5.638-6.6-6.121Z"/>
      <path class="cls-5" d="m244.8,735.085c-6.248-1.941-8.318-7.889-6.556-13.562.936-3.011,2.829-4.938,4.805-6.015l1.833,2.577c-1.703,1.123-2.896,2.433-3.459,4.246-1.248,4.014.565,7.608,4.587,8.858,3.991,1.24,7.479-.664,8.706-4.611.688-2.213.271-4.359-.473-6.219l2.955-.874c1.196,2.696,1.392,5.666.55,8.373-1.817,5.849-6.763,9.149-12.948,7.227Z"/>
      <path class="cls-5" d="m305.586,605.794l-1.118-3.078c1.584-.526,3.165-1.727,4.07-3.389,1.862-3.422,1.088-7.75-5.995-11.604-5.522-3.005-9.292-2.295-11.078.987-1.328,2.44-.683,5.325,2.157,6.871,2.854,1.553,5.224.775,6.75-2.027.898-1.652,1.156-4.077-.013-7.039l2.641,1.258c.879,2.778.726,5.712-.454,7.879-2.221,4.081-6.058,5.703-10.693,3.181-4.378-2.382-5.347-7.502-3.144-11.551,2.615-4.805,8.237-6.819,15.603-2.811,8.824,4.801,9.886,11.305,7.237,16.173-1.552,2.852-3.792,4.401-5.963,5.149Z"/>
      <path class="cls-5" d="m382.81,487.266l-.724-3.137c2.281-.288,4.779-1.23,6.714-3.557,2.105-2.531,2.428-5.44.423-7.108-2.176-1.81-5.11-1.204-9.257,3.782l-2.264-1.883c3.686-4.431,3.631-7.337,1.704-8.941-1.743-1.45-4.08-.859-5.919,1.353-1.468,1.764-2.006,3.994-1.969,6.229l-3.224.016c-.036-2.903.726-5.898,2.823-8.419,3.193-3.839,7.397-5.144,10.632-2.452,2.276,1.893,2.383,4.792,1.204,7.882l.123.103c2.717-2.094,6.2-2.848,8.86-.636,3.514,2.924,2.868,7.981-.428,11.943-2.804,3.371-5.985,4.61-8.698,4.827Z"/>
      <path class="cls-5" d="m483.777,385.969c1.867-10.85,2.77-17.296.191-20.472-1.766-2.174-4.258-2.547-6.957-.355-1.788,1.452-2.477,3.726-2.707,5.96l-3.137-.307c.346-3.385,1.357-6.149,4.209-8.465,4.021-3.266,8.516-2.984,11.427.6,2.942,3.622,2.265,10.237.927,18.75,1.133-1.084,2.386-2.225,3.526-3.15l6.021-4.89,2.134,2.628-14.168,11.507-1.466-1.806Z"/>
      <path class="cls-5" d="m601.603,305.899l.77-3.184c1.612.438,3.593.311,5.267-.574,3.444-1.822,5.192-5.855,1.42-12.985-2.94-5.559-6.474-7.052-9.777-5.304-2.457,1.299-3.514,4.061-2.002,6.919,1.52,2.872,3.924,3.536,6.745,2.043,1.663-.88,3.219-2.758,3.882-5.874l1.505,2.509c-.803,2.801-2.554,5.162-4.735,6.316-4.106,2.172-8.202,1.403-10.67-3.262-2.332-4.407-.307-9.209,3.768-11.365,4.836-2.559,10.635-1.128,14.558,6.286,4.698,8.881,1.988,14.889-2.913,17.48-2.87,1.519-5.594,1.571-7.817.994Z"/>
      <path class="cls-5" d="m732.242,250.489c5.875-9.311,9.175-14.923,8.006-18.844-.8-2.684-2.961-3.982-6.292-2.989-2.208.658-3.714,2.495-4.782,4.473l-2.781-1.483c1.614-2.996,3.605-5.163,7.128-6.212,4.965-1.48,9.011.499,10.33,4.924,1.333,4.472-1.823,10.326-6.315,17.681,1.461-.569,3.057-1.143,4.463-1.562l7.433-2.215.967,3.245-17.493,5.213-.664-2.229Z"/>
      <path class="cls-5" d="m870.411,211.244c-.796-8.547,2.351-13.416,8.059-13.948,5.708-.531,9.702,3.672,10.498,12.218.791,8.482-2.334,13.59-8.042,14.122-5.708.532-9.724-3.911-10.514-12.393Zm14.932-1.392c-.663-7.104-3.301-9.709-6.579-9.404-3.277.306-5.389,3.354-4.728,10.458s3.317,9.883,6.595,9.578c3.277-.306,5.374-3.528,4.712-10.632Zm-8.278.542c-.157-1.685.938-2.844,2.349-2.976,1.412-.131,2.702.805,2.859,2.49.16,1.718-.935,2.877-2.346,3.009-1.411.131-2.701-.806-2.861-2.523Z"/>
      <path class="cls-5" d="m1013.306,219.589l2.196-2.355c1.514,1.731,3.692,3.275,6.704,3.578,3.277.331,5.868-1.03,6.13-3.625.284-2.817-1.859-4.911-8.313-5.562l.296-2.931c5.734.578,8.114-1.093,8.365-3.589.228-2.257-1.567-3.863-4.432-4.151-2.284-.23-4.434.571-6.267,1.852l-1.816-2.664c2.389-1.654,5.297-2.698,8.561-2.369,4.969.5,8.402,3.256,7.981,7.445-.298,2.945-2.641,4.657-5.862,5.408l-.016.159c3.255,1.082,5.829,3.547,5.482,6.991-.458,4.55-5.013,6.842-10.143,6.326-4.363-.439-7.17-2.384-8.867-4.512Z"/>
      <path class="cls-5" d="m1156.044,239.702c1.915-6.255,7.853-8.351,13.531-6.613,3.015.922,4.948,2.806,6.034,4.778l-2.568,1.844c-1.129-1.698-2.445-2.885-4.259-3.44-4.021-1.23-7.605.599-8.838,4.625-1.223,3.996.695,7.476,4.648,8.685,2.216.678,4.36.251,6.216-.501l.887,2.952c-2.69,1.207-5.658,1.416-8.369.585-5.856-1.792-9.179-6.722-7.282-12.916Z"/>
      <path class="cls-5" d="m1300.06,286.594c2.217-4.116,5.99-5.798,10.906-3.151,1.769.953,3.253,2.204,4.497,3.678l-2.156,2.197c-1.032-1.269-2.035-2.099-3.476-2.874-2.846-1.533-4.855-.644-6.246,1.938l-9.953,18.477-3.479-1.874,9.907-18.391Zm-5.56-1.228l5.017,2.467,10.234,5.513-1.509,2.8-15.152-8.162,1.41-2.617Z"/>
      <path class="cls-5" d="m1404.467,377.668c11.003-.312,17.5-.701,20.104-3.855,1.782-2.16,1.654-4.678-1.026-6.89-1.776-1.465-4.141-1.692-6.377-1.476l-.318-3.136c3.386-.33,6.295.116,9.129,2.454,3.995,3.297,4.608,7.759,1.669,11.32-2.969,3.598-9.586,4.242-18.194,4.612,1.287.896,2.652,1.9,3.784,2.834l5.981,4.936-2.155,2.61-14.076-11.615,1.48-1.794Z"/>
      <path class="cls-5" d="m1530.431,475.587l-8.989-10.97,2.645-2.167,11.813,14.418-1.896,1.554c-10.078-.377-15.273,1.972-23.26,7.97l-2.608-3.183c7.51-5.565,13.277-7.569,22.296-7.623Z"/>
      <path class="cls-5" d="m1606.197,591.545c4.121-2.205,8.196-1.521,10.83,3.403.947,1.771,1.492,3.634,1.715,5.55l-3.012.639c-.159-1.628-.537-2.875-1.308-4.316-1.524-2.851-3.691-3.221-6.277-1.838l-18.51,9.897-1.862-3.485,18.424-9.851Zm-3.956-4.097l2.817,4.83,5.482,10.251-2.805,1.5-8.116-15.179,2.621-1.402Z"/>
      <path class="cls-5" d="m1646.729,723.75c3.27-.99,5.888.91,7.901,3.145l.153-.046c.685-2.422,2.041-4.625,4.598-5.4,3.852-1.167,7.376,1.313,8.735,5.798,1.453,4.799-.371,8.496-4.225,9.663-2.283.691-4.827-.354-6.789-1.935l-.153.046c-.522,3.052-1.496,5.615-4.929,6.655-3.687,1.116-7.538-1.225-9.258-6.899-1.678-5.542.078-9.85,3.966-11.027Zm4.336,14.282c3.068-.93,2.962-4.328,3.116-8.795-1.825-1.757-3.812-2.886-6.032-2.213-2.537.768-3.621,3.581-2.584,7.004.986,3.255,3.103,4.73,5.5,4.004Zm11.635-4.301c2.245-.68,3.503-2.809,2.616-5.736-.743-2.451-2.648-3.789-4.893-3.109-2.665.808-3.037,3.737-3.103,7.509,1.911,1.375,3.716,1.84,5.379,1.336Z"/>
      <path class="cls-5" d="m1679.472,862.954c6.333-.617,10.64,3.174,11.08,7.677.221,2.271-.491,4.066-1.835,5.828l.01.094,3.397-.522,7.259-.708.386,3.965-28.222,2.751-.316-3.242,2.384-.551-.013-.127c-1.731-1.401-3.262-3.515-3.486-5.824-.489-5.022,2.908-8.713,9.356-9.342Zm-2.884,14.592l9.201-.897c1.309-1.715,1.692-3.258,1.543-4.796-.295-3.031-3.171-5.258-7.418-4.844-4.424.431-6.72,2.637-6.403,5.882.172,1.762,1.166,3.293,3.077,4.655Z"/>
      <path class="cls-5" d="m1684.47,1007.466c8.543.824,12.734,4.83,12.183,10.536-.55,5.706-5.43,8.836-13.973,8.012-8.479-.818-12.907-4.846-12.357-10.552.551-5.707,5.669-8.815,14.147-7.996Zm-1.439,14.926c7.101.685,10.155-1.418,10.472-4.694.315-3.275-2.28-5.923-9.382-6.608-7.101-.685-10.33,1.4-10.646,4.677-.316,3.275,2.455,5.94,9.557,6.626Zm1.022-8.231c1.685.162,2.617,1.455,2.48,2.865-.136,1.41-1.299,2.502-2.983,2.34-1.717-.166-2.649-1.46-2.513-2.87.136-1.41,1.299-2.501,3.016-2.335Z"/>
      <path class="cls-5" d="m1658.432,1149.315c8.216,2.477,11.543,7.222,9.89,12.71-1.653,5.487-7.049,7.604-15.264,5.129-8.154-2.457-11.71-7.271-10.057-12.76,1.653-5.487,7.278-7.535,15.431-5.079Zm-4.324,14.354c6.827,2.057,10.234.592,11.184-2.559s-1.08-6.253-7.909-8.311c-6.827-2.058-10.401-.644-11.351,2.508-.949,3.15,1.247,6.304,8.076,8.361Zm2.609-7.872c1.62.488,2.282,1.938,1.872,3.295-.408,1.356-1.761,2.199-3.38,1.711-1.65-.498-2.312-1.948-1.904-3.304.408-1.357,1.762-2.199,3.412-1.702Z"/>
      <path class="cls-5" d="m1596.73,1278.228l1.396,2.899c-2.116.804-4.253,1.98-5.729,4.75-1.594,2.99-1.063,6.283,1.86,7.842,2.883,1.536,5.635.345,7.27-2.723.944-1.773,1.085-3.03,1.045-5.066l2.054-1.154,10.585,6.552-6.93,13.002-3.015-1.608,5.291-9.93-5.715-3.74c-.146,1.506-.417,2.739-1.239,4.281-2.271,4.262-6.306,6.56-11.151,3.977-4.898-2.61-5.513-8.156-3.175-12.542,2.127-3.991,4.907-5.631,7.453-6.539Z"/>
      <path class="cls-5" d="m1526.659,1404.404c6.646,5.433,7.905,11.091,4.276,15.53-3.628,4.438-9.425,4.331-16.071-1.102-6.596-5.392-8.04-11.201-4.412-15.641,3.629-4.438,9.61-4.18,16.207,1.212Zm-9.491,11.609c5.524,4.516,9.233,4.466,11.316,1.917,2.083-2.55,1.395-6.192-4.129-10.707-5.525-4.517-9.368-4.576-11.451-2.027-2.084,2.549-1.26,6.304,4.264,10.817Zm5.425-6.274c1.311,1.07,1.368,2.663.471,3.761-.897,1.097-2.47,1.358-3.78.286-1.335-1.091-1.394-2.683-.496-3.781.897-1.097,2.471-1.358,3.806-.266Z"/>
      <path class="cls-5" d="m1419.405,1499.968c-1.773,10.861-2.62,17.314-.014,20.467,1.783,2.158,4.278,2.509,6.958.295,1.774-1.467,2.443-3.745,2.654-5.982l3.138.279c-.315,3.387-1.303,6.159-4.134,8.5-3.992,3.3-8.489,3.058-11.431-.501-2.971-3.595-2.353-10.215-1.089-18.735-1.123,1.094-2.366,2.244-3.497,3.18l-5.975,4.939-2.157-2.609,14.063-11.624,1.482,1.792Z"/>
      <path class="cls-5" d="m1305.737,1587.641c3.109,5.757.433,11.457-4.795,14.28-2.773,1.499-5.475,1.554-7.641.942l.49-3.125c2.003.388,3.772.285,5.442-.618,3.699-1.998,4.915-5.835,2.912-9.541-1.986-3.676-5.811-4.754-9.449-2.788-2.039,1.102-3.241,2.928-4.009,4.778l-2.725-1.442c1.03-2.765,2.966-5.023,5.461-6.371,5.389-2.911,11.233-1.814,14.312,3.885Z"/>
      <path class="cls-5" d="m1171.499,1638.777l-6.905,2.124,5.197,16.894,5.445-1.675.75,2.436c-2.849,1.326-4.477,2.463-5.842,3.881l-2.828.87-6.53-21.232-6.134,1.887-.963-3.131,16.848-5.184.962,3.131Z"/>
      <path class="cls-5" d="m1034.423,1674.912c.646,6.332-3.126,10.658-7.628,11.117-2.271.232-4.07-.473-5.837-1.807l-.094.01.537,3.396.74,7.255-3.963.405-2.881-28.212,3.241-.331.562,2.38.126-.013c1.394-1.737,3.5-3.277,5.81-3.514,5.021-.513,8.729,2.868,9.387,9.313Zm-14.607-2.815l.939,9.198c1.722,1.3,3.265,1.678,4.803,1.521,3.031-.309,5.244-3.195,4.812-7.441-.452-4.423-2.669-6.707-5.913-6.376-1.761.18-3.288,1.181-4.641,3.099Z"/>
    </g>
  </g>
</svg>