<svg width="1042" height="1024" viewBox="0 0 1042 1024" fill="none" xmlns="http://www.w3.org/2000/svg">
<rect width="1024" height="1024" rx="64" fill="#191919"/>
<path d="M696.583 630.635V207.826C696.582 203.881 693.385 200.684 689.44 200.683H254.289C225.236 200.683 201.683 224.236 201.683 253.289V651.3C215.479 638.477 233.969 630.635 254.289 630.635H696.583Z" fill="#372D7B"/>
<g filter="url(#filter0_d_1_65)">
<path d="M514.081 403.317C520.897 403.317 526.422 408.843 526.422 415.659C526.422 422.475 520.897 428 514.081 428H384.185C377.369 428 371.843 422.475 371.843 415.659C371.843 408.843 377.369 403.317 384.185 403.317H514.081Z" fill="white"/>
<path d="M440.288 504.784C444.85 499.72 452.654 499.313 457.718 503.875C462.782 508.438 463.188 516.242 458.625 521.306L458.302 521.665C453.74 526.729 445.936 527.136 440.872 522.574C435.808 518.011 435.401 510.207 439.963 505.143L440.288 504.784Z" fill="white"/>
<path d="M440.283 309.944C444.843 304.878 452.647 304.468 457.713 309.028C462.779 313.588 463.189 321.392 458.629 326.458L458.306 326.817C453.746 331.883 445.942 332.293 440.876 327.733C435.81 323.173 435.4 315.37 439.96 310.304L440.283 309.944Z" fill="white"/>
</g>
<path d="M177 253.289V707.924C177 750.611 211.604 785.214 254.289 785.214L708.924 785.214C715.74 785.214 721.266 779.688 721.266 772.872C721.266 766.056 715.74 760.53 708.924 760.53L254.289 760.53C225.236 760.53 201.683 736.979 201.683 707.924C201.683 678.87 225.236 655.318 254.289 655.318H708.924C715.74 655.318 721.266 649.792 721.266 642.976C721.266 641.336 720.946 639.77 720.364 638.337C720.946 636.905 721.266 635.339 721.266 633.698V207.825C721.266 190.249 707.018 176 689.44 176H254.289C211.604 176 177 210.604 177 253.289ZM696.583 207.825V630.635H254.289C233.969 630.635 215.479 638.477 201.683 651.3V253.289C201.683 224.236 225.236 200.683 254.289 200.683H689.44C693.385 200.684 696.582 203.881 696.583 207.825Z" fill="#DBDBDB"/>
<g filter="url(#filter1_d_1_65)">
<path fill-rule="evenodd" clip-rule="evenodd" d="M645.146 602.722L648.53 601.03L648.748 601.846L646.389 607.449L645.146 602.722ZM707.635 571.478L720.763 621.364L732.443 559.074L707.635 571.478Z" fill="#140B3A"/>
<path fill-rule="evenodd" clip-rule="evenodd" d="M648.748 601.846L612.366 466.063L609.545 467.441L646.389 607.449L648.748 601.846ZM585.13 632.122L573.299 590.714L578.433 629.73L585.13 632.122Z" fill="#140B3A"/>
<path d="M607.862 463.302L590.016 466.277C563.422 470.709 546.611 497.306 554.018 523.229L573.299 590.714L585.13 632.122L585.282 632.654" fill="#140B3A"/>
<path fill-rule="evenodd" clip-rule="evenodd" d="M648.749 601.847L612.366 466.063L609.545 467.441L646.39 607.45L648.749 601.847Z" fill="#140B3A"/>
<path d="M612.366 466.064L648.749 601.846L646.39 607.449L609.546 467.441L612.366 466.064ZM606.115 454.405L609.546 467.441L560.247 491.523L573.299 590.714L585.13 632.122L585.282 632.655L585.282 711.685L534.369 653.498C519.714 636.751 493.479 637.329 479.576 654.709C468.852 668.112 469.177 687.249 480.349 700.282L583.055 820.107C591.634 830.117 604.158 835.877 617.341 835.877H765.924C820.117 835.877 856.245 790.716 856.245 745.556V634.147C856.245 633.158 856.353 632.167 856.568 631.203L868.49 577.554C874.106 552.279 857.367 527.467 831.829 523.211L811.084 519.753L816.673 486.225C819.821 467.33 807.056 449.46 788.161 446.31C769.537 443.206 751.85 455.572 748.37 474.131L720.763 621.364L672.248 437.002C667.752 419.92 650.984 409.073 633.561 411.977C613.707 415.286 600.993 434.942 606.115 454.405Z" fill="#140B3A"/>
<path d="M470.11 647.134C488.73 623.859 523.865 623.085 543.492 645.515L573.159 679.42V632.655C573.159 625.959 578.587 620.532 585.283 620.532C591.978 620.532 597.406 625.96 597.406 632.655V711.685C597.406 716.735 594.273 721.257 589.545 723.034C584.817 724.81 579.483 723.47 576.157 719.669L525.246 661.481C515.714 650.589 498.768 650.789 489.479 661.751L489.043 662.282C481.959 671.137 482.172 683.78 489.553 692.391L592.258 812.217C598.535 819.54 607.697 823.753 617.341 823.753H765.924C812.647 823.753 844.121 784.821 844.121 745.555V634.147C844.121 632.278 844.326 630.404 844.734 628.57L856.656 574.924L856.836 574.058C860.379 555.87 848.225 538.235 829.835 535.17L809.091 531.711C802.487 530.61 798.026 524.364 799.127 517.759C800.228 511.155 806.474 506.695 813.078 507.795L833.823 511.252C866.217 516.652 887.448 548.124 880.325 580.183L868.403 633.832V633.837C868.382 633.931 868.368 634.039 868.368 634.147V745.555C868.368 796.609 827.587 848 765.924 848H617.341C600.618 848 584.731 840.693 573.848 827.996V827.994L471.145 708.173C456.182 690.718 455.747 665.087 470.11 647.134Z" fill="white"/>
<path d="M649.921 601.531L650.027 601.934L649.866 602.317L630.023 649.442L578.025 630.871L577.327 630.623L558.931 490.817L613.155 464.328L649.921 601.531ZM561.564 492.228L579.538 628.837L628.676 646.388L647.467 601.758L611.573 467.797L561.564 492.228Z" fill="#140B3A"/>
<path d="M605.869 451.345C612.473 450.244 618.719 454.705 619.82 461.309C620.921 467.913 616.459 474.159 609.854 475.26L592.01 478.234C572.555 481.477 560.256 500.935 565.675 519.899L596.94 629.325C598.778 635.762 595.05 642.472 588.612 644.311C582.174 646.15 575.466 642.423 573.626 635.986L542.361 526.56C532.965 493.677 554.289 459.941 588.022 454.319L605.869 451.345Z" fill="white"/>
<path d="M631.567 400.019C655.168 396.085 677.882 410.778 683.972 433.917L732.487 618.279C734.191 624.754 730.324 631.383 723.849 633.088C717.374 634.792 710.742 630.925 709.038 624.45L660.523 440.088C657.621 429.062 646.799 422.063 635.554 423.937C622.74 426.072 614.535 438.757 617.84 451.319L664.747 629.569C666.451 636.044 662.582 642.674 656.107 644.378C649.632 646.081 643.002 642.215 641.299 635.74L594.391 457.492C587.453 431.127 604.675 404.501 631.567 400.019Z" fill="white"/>
<path d="M736.455 471.896C741.151 446.851 765.019 430.163 790.153 434.351C815.254 438.535 832.339 461.969 828.816 487.022L828.631 488.218L823.043 521.747C823.022 521.875 822.998 522.003 822.972 522.13L800.392 635.032C799.079 641.598 792.691 645.855 786.126 644.542C779.561 643.228 775.304 636.843 776.616 630.278L799.151 517.589L804.713 484.23C806.76 471.94 798.458 460.318 786.168 458.269C774.055 456.25 762.549 464.292 760.285 476.364L732.678 623.598C731.444 630.179 725.109 634.514 718.528 633.28C711.948 632.046 707.614 625.71 708.848 619.13L736.455 471.896Z" fill="white"/>
</g>
<defs>
<filter id="filter0_d_1_65" x="351.843" y="285.859" width="194.579" height="259.887" filterUnits="userSpaceOnUse" color-interpolation-filters="sRGB">
<feFlood flood-opacity="0" result="BackgroundImageFix"/>
<feColorMatrix in="SourceAlpha" type="matrix" values="0 0 0 0 0 0 0 0 0 0 0 0 0 0 0 0 0 0 127 0" result="hardAlpha"/>
<feOffset/>
<feGaussianBlur stdDeviation="10"/>
<feComposite in2="hardAlpha" operator="out"/>
<feColorMatrix type="matrix" values="0 0 0 0 0 0 0 0 0 0 0 0 0 0 0 0 0 0 0.6 0"/>
<feBlend mode="normal" in2="BackgroundImageFix" result="effect1_dropShadow_1_65"/>
<feBlend mode="normal" in="SourceGraphic" in2="effect1_dropShadow_1_65" result="shape"/>
</filter>
<filter id="filter1_d_1_65" x="299.623" y="239.383" width="742.08" height="768.617" filterUnits="userSpaceOnUse" color-interpolation-filters="sRGB">
<feFlood flood-opacity="0" result="BackgroundImageFix"/>
<feColorMatrix in="SourceAlpha" type="matrix" values="0 0 0 0 0 0 0 0 0 0 0 0 0 0 0 0 0 0 127 0" result="hardAlpha"/>
<feOffset/>
<feGaussianBlur stdDeviation="80"/>
<feComposite in2="hardAlpha" operator="out"/>
<feColorMatrix type="matrix" values="0 0 0 0 0 0 0 0 0 0 0 0 0 0 0 0 0 0 0.8 0"/>
<feBlend mode="normal" in2="BackgroundImageFix" result="effect1_dropShadow_1_65"/>
<feBlend mode="normal" in="SourceGraphic" in2="effect1_dropShadow_1_65" result="shape"/>
</filter>
</defs>
</svg>
